<?xml version="1.0"?><svg id="Capa_2" xmlns="http://www.w3.org/2000/svg" viewBox="0 0 364.16 426.12" fill="#EFE9DB"><defs></defs><g id="Capa_1-2"><path class="cls-1" d="M242.75,51.48c-37.59-16.57-80.67-15.83-121.28,2.07-37.76,16.64-70.71,46.99-92.77,85.46C7.07,176.71-2.87,219.77.72,260.25c.84,9.53,2.6,19.81,5.51,32.35l.52,2.23,22.41-4.7-.35-2.14c-.48-2.99-1.06-5.96-1.64-8.93-.8-4.13-1.64-8.39-2.18-12.6-5.41-42.11,5.51-88.1,29.97-126.17,25.84-40.23,63.58-67.05,106.27-75.54,37.46-7.45,73.9,2.13,102.58,26.95,34.76,30.08,54.19,79.59,49.49,126.13-1.64,16.26-6.29,33.82-14.21,53.69l-.83,2.08,21.05,8.61.93-2.12c18.35-41.79,21.9-86.48,10-125.83-14.24-47.1-46.13-84.57-87.49-102.8Z"></path><path class="cls-1" d="M296.75,212.79c-4.28,54.23-39.24,105.16-84.98,123.86-11.98,4.9-24.27,7.35-36.37,7.35-13.53,0-26.83-3.06-39.12-9.16-26.11-12.92-45.07-37.6-52.03-67.7-7.46-32.37-.19-68.09,19.97-98,18.8-27.84,46.03-46.49,76.69-52.45l2.34-.46,4.69,21.74-2.32.48c-40.63,8.4-75.04,47.76-80.03,91.55-4.04,35.23,11.91,68.82,39.69,83.61,24.46,13.03,53.32,9.19,79.2-10.57,26.73-20.42,45.91-56.16,48.83-91.04,1.58-18.65-.86-45.41-21.26-66.96-6.82-7.21-15.59-13.03-28.36-18.9l8.82-20.01c4.81.83,13.41,5.76,16.43,7.55,33.79,20.1,51.2,56.23,47.82,99.13Z"></path><path class="cls-1" d="M281.47,301.74c-15.03,18.8-30.61,32.84-47.65,42.91-37.43,22.14-78.22,23.48-111.9,3.68-38.62-22.71-61.1-68.62-57.26-116.96,2.75-34.71,18.96-69.04,44.45-94.21l1.6-1.58-15.89-16.21-1.74,1.69c-47.4,45.97-64.59,116.15-42.8,174.64,11.9,31.92,34.19,58.16,62.77,73.89,18.71,10.3,39.37,15.53,60.4,15.53,12.56,0,25.26-1.87,37.76-5.63,33.61-10.13,65.18-33.23,88.9-65.05l1.41-1.89-18.65-12.55-1.39,1.74Z"></path><path class="cls-1" d="M164.67,165.49c-27.58,19.24-44.49,51.14-45.24,85.34l-.05,2.21,23.43,1.41.09-2.36c1-27.41,14.44-53.42,35.09-67.88,14.52-10.17,27.79-12.72,37.36-7.2,10.51,6.06,15.36,21.52,12.66,40.33-2.63,18.33-16.25,47.76-34.95,55.36-4.32,1.75-7.53,1.83-9.51.23-3.9-3.14-3.79-12.62-2.04-20.11,2.18-9.36,7.77-19.7,15.34-28.37l1.47-1.69-17.25-15.21-1.62,1.67c-21.27,21.99-25.96,48.75-21.19,65.52,2.79,9.8,8.65,16.76,16.93,20.14,3.54,1.44,7.42,2.16,11.47,2.16,6.37,0,13.18-1.76,19.74-5.22,26.83-14.14,44.41-51.38,45.91-79.21,1.39-25.84-8.43-46.84-26.26-56.17-17.56-9.19-39.92-5.88-61.36,9.07Z"></path><path class="cls-1" d="M364.16,134.99l-21.57,7.12-.74-2.21c-8.46-24.8-20.61-46.28-36.18-63.87-25.73-29.13-62-48.29-99.52-52.59-48.13-5.53-100.72,12.39-141.03,47.94l-15.28-16.21C93.86,15.18,155.1-5.47,209.85,1.25c70.95,8.7,131.25,60.37,153.63,131.61l.67,2.12Z"></path><path class="cls-1" d="M256.97,377.49c-36.79,22.57-75.57,30.59-112.15,23.2-42.52-8.59-80.74-37.67-102.24-77.77l-1.15-2.13-20.1,11.06,1.05,1.96c30.57,57.01,89.28,92.32,150.53,92.31,6.85,0,13.74-.44,20.62-1.34,24.59-3.23,49.9-12.73,75.2-28.26l1.94-1.19-11.6-19.12-2.09,1.29Z"></path><path class="cls-1" d="M218.06,84.28l-6.96,21.28c-24.92-7.41-51.75-3.04-77.62,12.76-.53.32-1.89,1.29-3.44,2.37-3.28,2.3-4.9,3.41-5.83,3.96l-15.38-16.21,7.63-6.06c28.46-20.15,61.19-27.45,92.25-20.68,5.05,1.11,7.8,1.91,9.35,2.58Z"></path></g></svg>